<?xml version="1.0" standalone="no"?>
<!DOCTYPE svg PUBLIC "-//W3C//DTD SVG 20010904//EN"
 "http://www.w3.org/TR/2001/REC-SVG-20010904/DTD/svg10.dtd">
<svg version="1.0" xmlns="http://www.w3.org/2000/svg"
 width="283.000000pt" height="283.000000pt" viewBox="0 0 283.000000 283.000000"
 preserveAspectRatio="xMidYMid meet">
<metadata>
Created by potrace 1.11, written by Peter Selinger 2001-2013
</metadata>
<g transform="translate(0.000000,283.000000) scale(0.100000,-0.100000)"
fill="#000000" stroke="none">
<path d="M1255 2774 c-207 -32 -359 -79 -514 -160 -371 -193 -630 -534 -718
-944 -25 -119 -25 -391 0 -510 117 -548 535 -959 1100 -1082 147 -32 437 -32
584 0 295 64 548 204 749 414 179 188 296 410 351 668 25 119 25 391 0 510
-117 546 -538 961 -1095 1081 -94 20 -381 34 -457 23z"/>
</g>
</svg>
